<svg id="Layer_1" data-name="Layer 1" xmlns="http://www.w3.org/2000/svg" xmlns:xlink="http://www.w3.org/1999/xlink" viewBox="0 0 30 30"><defs><style>.cls-1{fill:#ff6518;}.cls-2{clip-path:url(#clip-path);}.cls-3{opacity:0.26;}</style><clipPath id="clip-path"><path class="cls-1" d="M24.36.28H5.54A3.26,3.26,0,0,0,2.27,3.54V17.07a3.42,3.42,0,0,0,5.86,2.34l7.52-7.62-5-3.1,1.27-1.27,6,2,2.44-2.55a1.19,1.19,0,0,1,1.51-.2,1.16,1.16,0,0,1,.17,1.82L19.47,11l2,6.05L20.2,18.28l-3.1-5-6.33,6.57a5.85,5.85,0,0,0,4.12,9.91H15A12.72,12.72,0,0,0,27.73,17V3.65A3.37,3.37,0,0,0,24.36.28Z"/></clipPath></defs><path class="cls-1" d="M24.36.28H5.54A3.26,3.26,0,0,0,2.27,3.54V17.07a3.42,3.42,0,0,0,5.86,2.34l7.52-7.62-5-3.1,1.27-1.27,6,2,2.44-2.55a1.19,1.19,0,0,1,1.51-.2,1.16,1.16,0,0,1,.17,1.82L19.47,11l2,6.05L20.2,18.28l-3.1-5-6.33,6.57a5.85,5.85,0,0,0,4.12,9.91H15A12.72,12.72,0,0,0,27.73,17V3.65A3.37,3.37,0,0,0,24.36.28Z"/><path class="cls-1" d="M24.36.28H5.54A3.26,3.26,0,0,0,2.27,3.54V17.07a3.42,3.42,0,0,0,5.86,2.34l7.52-7.62-5-3.1,1.27-1.27,6,2,2.44-2.55a1.19,1.19,0,0,1,1.51-.2,1.16,1.16,0,0,1,.17,1.82L19.47,11l2,6.05L20.2,18.28l-3.1-5-6.33,6.57a5.85,5.85,0,0,0,4.12,9.91H15A12.72,12.72,0,0,0,27.73,17V3.65A3.37,3.37,0,0,0,24.36.28Z"/><g class="cls-2"><g class="cls-3"><path class="cls-1" d="M13.46,21.7a1.74,1.74,0,0,0-.5-.17l-.33-.07-1-.21c-.13,0-.28-.08-.3-.2a.41.41,0,0,1,0-.22c0-.08,0-.18-.07-.2a.86.86,0,0,0-.51-.42,6.57,6.57,0,0,1-.61-.26,1.16,1.16,0,0,1-.4-.45c-.13-.28-.6-.27-.91-.24l-.38.08-.73.2-.08,0H7.65a.77.77,0,0,1-.51-.08h0a.58.58,0,0,1-.2-.13A.48.48,0,0,1,6.81,19a2.16,2.16,0,0,1,0-.36.23.23,0,0,0-.19-.2,1.6,1.6,0,0,0-.31,0,.22.22,0,0,1-.22-.33c0-.15.07-.34.2-.43s.17-.13.15-.22a.14.14,0,0,0-.12-.09.29.29,0,0,0-.16,0c-.25.13-.4.44-.68.48A.54.54,0,0,1,5,17.52a1.94,1.94,0,0,1,0-.72.62.62,0,0,1,.44-.55,2.22,2.22,0,0,1,.37,0,1.58,1.58,0,0,0,.34-.13.56.56,0,0,1,.5.06c.22.16.3.45.46.67s.11.13.18.11a.14.14,0,0,0,.09-.13,1.2,1.2,0,0,0,0-.19,2.36,2.36,0,0,1,0-.46.76.76,0,0,1,.18-.41c.16-.18.45-.23.51-.47a.82.82,0,0,1,.36-.44,3.21,3.21,0,0,0,.48-.34,1.61,1.61,0,0,0,.25-.42.72.72,0,0,1,.52-.37c.16,0,.35,0,.44-.13a.29.29,0,0,0,0-.34A1.61,1.61,0,0,0,9.78,13a.44.44,0,0,1-.13-.33.38.38,0,0,1,.22-.27.88.88,0,0,1,.36-.06,2.35,2.35,0,0,0,.65-.06.52.52,0,0,0,.38-.47.83.83,0,0,0-.33-.5.89.89,0,0,1-.16-.22h0v0a1,1,0,0,1-.06-.52.22.22,0,0,0-.06-.21c-.07-.06-.18,0-.25.06s-.14.14-.23.14-.19-.13-.2-.24,0-.23,0-.34-.2-.33-.36-.46a.37.37,0,0,0-.4-.06.56.56,0,0,0-.2.23,1.52,1.52,0,0,0-.22.58c0,.15,0,.3,0,.45a.85.85,0,0,1-.08.24h0a1.18,1.18,0,0,0-.18.38,1.44,1.44,0,0,1-.09.4.23.23,0,0,1-.1.15.21.21,0,0,1-.22-.09.66.66,0,0,1-.06-.25,1.92,1.92,0,0,0-1-1.4.5.5,0,0,1-.18-.62,1.26,1.26,0,0,1,.45-.52c.35-.28.73-.5,1.09-.77l.43-.32a.77.77,0,0,0,.32-.35,2,2,0,0,0,0-.26A.33.33,0,0,1,9.33,7c.13-.06.28,0,.38.14a3,3,0,0,1,.35.53h0a.35.35,0,0,1-.1.51h0l-.53.29c-.07,0-.15.1-.13.18s.14.08.22.09A.53.53,0,0,1,9.88,9a1.07,1.07,0,0,1,.23.4.27.27,0,0,0,.29.17.34.34,0,0,0,.25-.24.55.55,0,0,0,0-.36c0-.11,0-.26-.13-.34a.1.1,0,0,1,0-.17.12.12,0,0,1,.14.06,1.31,1.31,0,0,0,.11.12.29.29,0,0,0,.27,0s.14-.09.08-.27h0L11,7.81l-.2-.58a.68.68,0,0,0-.27-.39,2,2,0,0,1-.67-.69,1.45,1.45,0,0,0-.22-.36c-.09-.11-.28-.28-.4-.2a1.23,1.23,0,0,0-.47.63.45.45,0,0,0,0,.3,1,1,0,0,0,.17.27.34.34,0,0,1,0,.31.59.59,0,0,1-.12.22.23.23,0,0,1-.23.09.31.31,0,0,1-.2-.24,1.29,1.29,0,0,1,0-.48L8.37,6a.38.38,0,0,1,.07-.21c.06-.08.18-.09.29-.11S9,5.54,9,5.44a.15.15,0,0,0-.09-.15.25.25,0,0,0-.17,0,.69.69,0,0,0-.42.35c-.16.25-.17.57-.31.84a.87.87,0,0,0-.07.42,1,1,0,0,1-.06.43.34.34,0,0,1-.33.22c-.14,0-.23-.13-.33-.22a2,2,0,0,0-.55-.22.26.26,0,0,0-.25,0,.36.36,0,0,1-.24.07A.44.44,0,0,1,6,7.05c-.14-.15-.37-.14-.58-.19l-.11,0a.12.12,0,0,1,0-.11.13.13,0,0,1,.1-.06l.11,0a.13.13,0,0,0,0-.13,1,1,0,0,0-.34-.31h0A1,1,0,0,1,5,6.05h0A.33.33,0,0,0,4.78,6a.42.42,0,0,1-.22-.08,2.12,2.12,0,0,1-.11-.21.39.39,0,0,0-.28-.18.83.83,0,0,0-.35,0,4.39,4.39,0,0,1-.52.13.54.54,0,0,1-.22,0c-.08,0-.13-.1-.19-.15A4.51,4.51,0,0,1,1.76,4.38.81.81,0,0,0,1.33,4a.68.68,0,0,0-.56,0L.31,4.4a.53.53,0,0,1-.22.12c-.09,0-.2,0-.28.06a.23.23,0,0,0-.08.16.67.67,0,0,0,0,.2.85.85,0,0,1,.05.66c0,.08-.14.1-.22.08a2.6,2.6,0,0,1-.25-.1.49.49,0,0,0-.39,0A.54.54,0,0,0-1.26,6a.21.21,0,0,0,.1.24c.15.07.35-.06.51,0a.08.08,0,0,1,.09.08.17.17,0,0,1,0,.12,1.66,1.66,0,0,1-.61.4,1,1,0,0,0-.56.46.51.51,0,0,0,0,.45,1.09,1.09,0,0,1,.08.15s.06.13,0,.17a.19.19,0,0,0,0,.18.16.16,0,0,0,.15.09.47.47,0,0,1,.17,0,.15.15,0,0,1,.1.13c0,.08-.06.14-.12.19l-.37.3S-1.84,9-1.83,9s.05.07.09.08l.12,0a3.66,3.66,0,0,1,.55-.21.5.5,0,0,0,.33-.32,3.47,3.47,0,0,1,.17-.45.73.73,0,0,1,.32-.33.22.22,0,0,1,.17,0A.11.11,0,0,1,0,7.88a.59.59,0,0,1-.17.18.37.37,0,0,0-.15.2c0,.08,0,.14.11.13a.39.39,0,0,0,.32-.15.56.56,0,0,1,.33-.19c.35,0,.64.36.88.63a2.56,2.56,0,0,1,.47.66,2.12,2.12,0,0,1,.15,1.42.73.73,0,0,0,.21.74c.07.07.15.12.18.21a.45.45,0,0,1,0,.28,6.76,6.76,0,0,0-.52,1.49A1.9,1.9,0,0,0,2,14.91a3.92,3.92,0,0,1,.61,1.47,2.92,2.92,0,0,0,.33.69c0,.07.1.14.18.14a.17.17,0,0,0,.13-.07.29.29,0,0,0,0-.16.67.67,0,0,0-.15-.32,1.67,1.67,0,0,1-.37-.74l0-.25a.17.17,0,0,1,0-.07.07.07,0,0,1,.06,0s.08,0,.07.06a1.57,1.57,0,0,0,.4.84,1.41,1.41,0,0,1,.34.48,2.73,2.73,0,0,0,.41.92,1.39,1.39,0,0,0,.8.57c.29.07.61.15.9.2a.89.89,0,0,1,.67.53,1.64,1.64,0,0,0,.23.5c.14.15.39.14.59.16a.45.45,0,0,1,.33.2.42.42,0,0,1,0,.38,1.61,1.61,0,0,1-.2.33,2.3,2.3,0,0,0-.18.88A2.1,2.1,0,0,0,7.63,23a3.2,3.2,0,0,0,.63,1,1.82,1.82,0,0,1,.63,1.22,3,3,0,0,1,0,1.43,2.5,2.5,0,0,0-.27,1.59c.08.28.25.52.33.79a5.31,5.31,0,0,1,.1.68,1,1,0,0,0,.27.62c.19.16.31.39.49.55a.46.46,0,0,0,.24.12.18.18,0,0,0,.2-.14.24.24,0,0,0,0-.14l-.33-.72a.31.31,0,0,1,0-.28c0-.09.12-.16.17-.25a.31.31,0,0,0,.05-.29c0-.1-.15-.15-.18-.25a.3.3,0,0,1,.07-.24,1.62,1.62,0,0,0,.18-.19.45.45,0,0,0-.05-.57.48.48,0,0,1,.16-.41,1.57,1.57,0,0,1,.37-.24.91.91,0,0,0,.34-.27.48.48,0,0,1,.16-.39c.12-.1.25-.17.36-.28.3-.28.34-.74.52-1.12a1.68,1.68,0,0,1,.84-.8,1.93,1.93,0,0,0,.27-.91,2.33,2.33,0,0,1,0-.46.45.45,0,0,1,.28-.34.56.56,0,0,0,.27-.51A.59.59,0,0,0,13.46,21.7Z"/><path class="cls-1" d="M4,5.13a.44.44,0,0,0-.1.35.41.41,0,0,0,.21.3l.12.08a.11.11,0,0,1,0,.13A.15.15,0,0,1,4.1,6a.26.26,0,0,0-.17,0,.18.18,0,0,0-.11.15.58.58,0,0,0,0,.18c0,.12.1.26.22.3s.35-.12.53-.09a.44.44,0,0,1,.22.16A.56.56,0,0,0,5,6.83a.17.17,0,0,0,.23-.08c0-.07,0-.16,0-.24s.12-.17.2-.24a1.08,1.08,0,0,0,.23-.81.47.47,0,0,0,0-.17.15.15,0,0,0-.11-.11c-.1,0-.17.1-.23.18s-.19.19-.28.16-.22-.22-.3-.29A.71.71,0,0,0,4.47,5,.42.42,0,0,0,4,5.13Z"/><path class="cls-1" d="M3.47,5.3a.21.21,0,0,0,.15-.07,1.19,1.19,0,0,0,.09-.15.86.86,0,0,1,.39-.34.82.82,0,0,0,.37-.19.3.3,0,0,0,0-.42c-.19-.17-.48,0-.64.13A1.39,1.39,0,0,0,3.35,5a.38.38,0,0,0,0,.21A.18.18,0,0,0,3.47,5.3Z"/><path class="cls-1" d="M5.31,17.41s-.11,0-.11.07a.08.08,0,0,0,.07.07l.32.16a4,4,0,0,0,.48.2.33.33,0,0,0,.17,0c.28-.09-.2-.33-.28-.37A1.59,1.59,0,0,0,5.31,17.41Z"/><path class="cls-1" d="M6.75,18c-.06,0-.13,0-.16.06a.13.13,0,0,0,0,.13.26.26,0,0,0,.13.06.67.67,0,0,0,.28,0c.1,0,.23-.1.14-.2S6.87,18,6.75,18Z"/><path class="cls-1" d="M15.9,8A.54.54,0,0,0,16,7.45c-.08-.17-.27-.34-.19-.51s.22-.15.34-.2A.69.69,0,0,0,16.55,6a2.26,2.26,0,0,1,.58-2,1.18,1.18,0,0,0,.17-.22.24.24,0,0,0,0-.26.28.28,0,0,0-.29,0,2.63,2.63,0,0,1-.3.08c-.1,0-.22-.07-.22-.17s.1-.17.18-.24.14-.2.06-.26a1.61,1.61,0,0,0-1.47-.29,2.65,2.65,0,0,1-.93.29,4.94,4.94,0,0,1-.53-.1.42.42,0,0,0-.46.2c-.36.24-.72.58-1.08.82a1.23,1.23,0,0,0-.56.61.61.61,0,0,0,.16.57,2.62,2.62,0,0,0,.34.24.45.45,0,0,1,.24.33c0,.36.2.7.26,1.06a2.75,2.75,0,0,1,0,.76,1.83,1.83,0,0,1-.45,1,.9.9,0,0,0-.17.4.53.53,0,0,0,0,.41c.06.12.19.21.21.34a.37.37,0,0,1,0,.18.27.27,0,0,0,.05.18.28.28,0,0,0,.25,0c.13-.07.26.05.35.16s.2.24.33.19.15-.2.18-.33a1.64,1.64,0,0,1,.82-1c.37-.23.8-.39,1.18-.61A1.16,1.16,0,0,0,15.9,8Z"/><path class="cls-1" d="M14.74,10.82a2.15,2.15,0,0,1,.18-.24c.09-.07.24-.11.3-.22a.21.21,0,0,0,0-.19.27.27,0,0,0-.17-.11c-.22,0-.42.16-.63.13s-.23-.12-.33-.07a.2.2,0,0,0-.08.25.61.61,0,0,0,.18.21C14.32,10.69,14.57,11,14.74,10.82Z"/><path class="cls-1" d="M38.71,5.59l-.1-.1a.61.61,0,0,1-.08-.3.85.85,0,0,0,0-.32.25.25,0,0,0-.26-.14.82.82,0,0,1-.49,0c-.23-.08-.37-.34-.6-.43a4.94,4.94,0,0,0-.64-.15,1.61,1.61,0,0,0-.72,0,.54.54,0,0,0-.44.51s0,.07-.06.09a.19.19,0,0,1-.1,0l-.48.11a.51.51,0,0,1-.21,0,.23.23,0,0,1-.18-.07,3.54,3.54,0,0,0-.44-.32s-.08-.06-.12,0a.19.19,0,0,0-.1,0,.72.72,0,0,1-.49.13,7.15,7.15,0,0,1-1.11-.26.77.77,0,0,0-.45,0,.11.11,0,0,0-.07.06s0,.08,0,.12.11.2.15.29a.11.11,0,0,1,0,.12.41.41,0,0,1-.11.07L31,5.28a.57.57,0,0,1-.31.06.33.33,0,0,1-.22-.14A.83.83,0,0,1,30.33,5a.26.26,0,0,0-.15-.12.69.69,0,0,0-.2,0,.7.7,0,0,1-.32-.05.1.1,0,0,0-.1.06.53.53,0,0,0,0,.12.33.33,0,0,1-.22.25.6.6,0,0,1-.35,0,2.35,2.35,0,0,1-.35-.11.32.32,0,0,0-.41.1c0,.07-.07.18-.16.19s-.15-.08-.15-.17A.64.64,0,0,1,28,5a1,1,0,0,0-.19-.89.19.19,0,0,0-.28,0c-.05,0-.08.11-.13.13a.17.17,0,0,1-.18,0,1,1,0,0,1-.09-.18,1.08,1.08,0,0,0-.24-.28.3.3,0,0,0-.35,0,.28.28,0,0,0-.05.28.41.41,0,0,0,.19.24c.08,0,.1.14.08.22a.39.39,0,0,1-.18.18l-.25.08c-.21.07-.33.28-.53.39a.26.26,0,0,0-.09.4s.09.08.13.13a.16.16,0,0,1,0,.17.13.13,0,0,1-.12,0l-.13,0a.15.15,0,0,0-.16.11.28.28,0,0,0,0,.2.54.54,0,0,0,.1.16.48.48,0,0,1,.08.16.14.14,0,0,1,0,.16.17.17,0,0,1-.19,0,1.77,1.77,0,0,1-.17-.12c-.06,0-.13-.08-.18,0a.43.43,0,0,0-.05.41c.05.13.13.25.18.39s.07.32,0,.41a.23.23,0,0,1-.3,0,.76.76,0,0,1-.14-.3l-.15-.52a.53.53,0,0,0-.08-.17.17.17,0,0,0-.16-.09c-.12,0-.18.14-.19.25,0,.34.28.66.22,1a.14.14,0,0,1-.16.1A.38.38,0,0,1,24,7.76a.55.55,0,0,0-.17-.13.17.17,0,0,0-.19,0c-.07.06,0,.14,0,.23a.18.18,0,0,1-.13.15l-.21.07c-.06,0-.11.09-.17.12s-.24,0-.24-.09A.14.14,0,0,0,22.72,8c-.08,0-.15.07-.2.14s-.08.18-.16.22a.13.13,0,0,1-.14.08l-.17,0a.19.19,0,0,0-.15,0,.14.14,0,0,0,0,.17.61.61,0,0,1,0,.13.18.18,0,0,1-.05.12.27.27,0,0,1-.23,0c-.08,0-.19,0-.23.11a1.47,1.47,0,0,0-.08.28c0,.1-.11.19-.21.19s-.17-.1-.22-.18L20.72,9a.21.21,0,0,1,0-.11.15.15,0,0,1,.13-.13.44.44,0,0,1,.2,0,.27.27,0,0,0,.2,0,.22.22,0,0,0,.07-.31c-.05-.11-.11-.2-.23-.22a1.39,1.39,0,0,1-.83-.38A1,1,0,0,0,20,7.54a.37.37,0,0,0-.31,0c-.1,0-.18.13-.28.16a2.4,2.4,0,0,0-1,.89,2.48,2.48,0,0,0-.27.67,1,1,0,0,1-.46.58.41.41,0,0,0-.11.07.18.18,0,0,0-.05.12.67.67,0,0,0,.06.12.65.65,0,0,1,0,.14,1.88,1.88,0,0,0,0,.34.22.22,0,0,0,.05.16.15.15,0,0,0,.16.05c.09,0,.13-.14.22-.18a.19.19,0,0,1,.23.12c0,.1,0,.2,0,.29l.06.25c0,.06.05.14.11.16a.2.2,0,0,0,.18,0,.73.73,0,0,0,.23-.16.34.34,0,0,0,.1-.27c-.06-.51-.22-1.12.1-1.53l.22-.24a.59.59,0,0,1,.18-.13.26.26,0,0,1,.21,0,.18.18,0,0,1,.13.16.37.37,0,0,1-.09.19,2.78,2.78,0,0,1-.21.27.35.35,0,0,0,0,.42.43.43,0,0,0,.41.15,1.26,1.26,0,0,1,.43,0s.11,0,.11.09-.05.08-.1.09-.22,0-.32.05a.31.31,0,0,0-.14.36c0,.07,0,.14-.11.16s-.15,0-.22.07-.1.24-.15.37a.5.5,0,0,1-.43.29,1.68,1.68,0,0,1-.55,0,.4.4,0,0,1-.29-.31.23.23,0,0,0,0-.11.09.09,0,0,0-.08-.06s-.08,0-.08.08a.19.19,0,0,0,0,.13.49.49,0,0,1,.05.2.22.22,0,0,1-.12.19.78.78,0,0,1-.2.11,1.27,1.27,0,0,0-.66.61.41.41,0,0,1-.25.19l-.33.12c-.1,0-.21.08-.23.18a.28.28,0,0,0,.13.24.61.61,0,0,1,.19.2.23.23,0,0,1,0,.21.24.24,0,0,1-.19.1,1.07,1.07,0,0,0-.44.06.68.68,0,0,0-.33.46.68.68,0,0,0,.21.67.66.66,0,0,0,.7.06c.41-.22.48-.83.88-1.07a1.28,1.28,0,0,1,.7-.11c.41,0,.66.48.77.87,0,.07,0,.15.1.17a.14.14,0,0,0,.16,0,.67.67,0,0,0,.09-.14.39.39,0,0,0,.06-.25c0-.13-.16-.19-.27-.26a1.16,1.16,0,0,1-.38-.35.16.16,0,0,1,0-.17.14.14,0,0,1,.15-.06.42.42,0,0,1,.14.09,2.21,2.21,0,0,1,.82,1.16.44.44,0,0,0,.06.16.14.14,0,0,0,.14.08.17.17,0,0,0,.12-.17.63.63,0,0,0-.07-.22.33.33,0,0,1,0-.22.2.2,0,0,1,.23,0,.56.56,0,0,1,.16.18l.3.5a.33.33,0,0,0,.26.17,1.24,1.24,0,0,0,.33,0,.74.74,0,0,1,.33,0,.37.37,0,0,1,.23.35.34.34,0,0,1-.2.31.86.86,0,0,1-.39.06l-.65,0A1.58,1.58,0,0,1,20,16a.64.64,0,0,0-.42-.08.47.47,0,0,0-.19.18.34.34,0,0,1-.21.16c-.08,0-.19-.05-.17-.14a.76.76,0,0,0-.5-.29.37.37,0,0,1-.18,0c-.08-.06-.05-.19-.05-.29a.47.47,0,0,0-.28-.42,1.14,1.14,0,0,0-.75,0,6,6,0,0,1-.72.23,1.65,1.65,0,0,0-.31,0,.37.37,0,0,0-.24.2,6,6,0,0,1-1,1.25,3.62,3.62,0,0,0-.53.88,1.77,1.77,0,0,0-.06.52l0,.34a1.48,1.48,0,0,0,0,.21.58.58,0,0,0,.14.33c.22.07.34.35.41.57a1.33,1.33,0,0,0,.32.61.71.71,0,0,0,.57.12,2,2,0,0,0,.55-.23,1.48,1.48,0,0,1,1.33.24,1.43,1.43,0,0,1,.21.12c.1.08.2.17.19.29s-.07.18-.1.27a.38.38,0,0,0,.15.43,1.17,1.17,0,0,1,.39,1.35,4.34,4.34,0,0,0-.2.5.41.41,0,0,0,.14.48.88.88,0,0,1,.28.63c0,.2,0,.39,0,.59a.72.72,0,0,0,.25.51c.23.17,0,.61.17.84a.6.6,0,0,0,.48.17,1.57,1.57,0,0,0,1.09-.46,1.28,1.28,0,0,0,.38-.49,1.6,1.6,0,0,1,.12-.37,1.31,1.31,0,0,1,.32-.25c.1-.08.19-.23.13-.35a.73.73,0,0,1,.1-.71,3.38,3.38,0,0,1,.44-.4.53.53,0,0,0,.19-.53,2.21,2.21,0,0,1-.06-1.25,1.42,1.42,0,0,1,.75-.95,1.32,1.32,0,0,0,.6-.57.71.71,0,0,0,0-.79.76.76,0,0,0-.43-.21,1.74,1.74,0,0,1-.45-.11.55.55,0,0,1-.26-.3c0-.09-.14-.13-.2-.2a1,1,0,0,1-.18-.27L22,18c-.19-.34-.34-.71-.52-1a.39.39,0,0,1-.06-.17c0-.06,0-.13.09-.14s.13,0,.18.09a6.64,6.64,0,0,1,.94,1.52,2.72,2.72,0,0,0,.24.58.65.65,0,0,0,.54.3,1,1,0,0,0,.45-.18l.64-.39a1.59,1.59,0,0,0,.38-.29.55.55,0,0,0,.17-.43.36.36,0,0,0-.31-.32,1.93,1.93,0,0,1-.67-.12c-.12-.05-.25-.12-.28-.25a.59.59,0,0,0-.27-.35l-.11-.08a.16.16,0,0,1,0-.13.14.14,0,0,1,.08-.07h.11a.59.59,0,0,1,.19.05c.13.07.2.22.31.31a.66.66,0,0,0,.4.13.6.6,0,0,1,.23,0,.45.45,0,0,1,.23.13.32.32,0,0,0,.26.07,2.37,2.37,0,0,1,.79.06.65.65,0,0,1,.2.05.19.19,0,0,1,.1.17.34.34,0,0,0,.12.36.35.35,0,0,0,.38,0c.08-.06.19,0,.23.11a.7.7,0,0,1,0,.29,1.36,1.36,0,0,0,.11.6,4.55,4.55,0,0,0,.41.79c.05.08.12.16.21.16a.21.21,0,0,0,.2-.17,1.33,1.33,0,0,0,0-.28,1,1,0,0,1,.4-.77c.16-.12.28-.28.44-.4a.35.35,0,0,0,.17-.19c0-.07,0-.16,0-.21a.18.18,0,0,1,.14-.06l.14.05a1.24,1.24,0,0,1,.43.26.54.54,0,0,1,.16.26,1.46,1.46,0,0,0,.07.3.25.25,0,0,0,.23.18c.05,0,.1,0,.15,0a.19.19,0,0,1,.17.11.56.56,0,0,1,.06.21,3.67,3.67,0,0,0,.14,1.06l.16.29.27.41a.38.38,0,0,0,.21.14.15.15,0,0,0,.16,0s0-.07,0-.11a.53.53,0,0,0-.06-.1c-.08-.1-.14-.22-.22-.33a4,4,0,0,0-.22-.34,1.08,1.08,0,0,1-.16-.3.4.4,0,0,1,0-.34c0-.06.06-.11.13-.11a.18.18,0,0,1,.18.08c0,.07.09.11.15.13a.32.32,0,0,1,.19.1c0,.06,0,.14.06.19a.13.13,0,0,0,.14.05.13.13,0,0,0,.08-.12.32.32,0,0,1,.12-.2.67.67,0,0,0,.16-.12.27.27,0,0,0,0-.34,1.85,1.85,0,0,1-.53-.83.55.55,0,0,1,0-.18.23.23,0,0,1,.11-.14,3.62,3.62,0,0,1,.46-.06,1.26,1.26,0,0,0,.28-.05.45.45,0,0,0,.24-.16,1.75,1.75,0,0,1,.47-.37.3.3,0,0,0,.16-.22.43.43,0,0,1,.08-.29,1.74,1.74,0,0,0,.19-.26.29.29,0,0,0,0-.3.55.55,0,0,1-.13-.25,1.46,1.46,0,0,1,0-.22.63.63,0,0,0-.21-.4.29.29,0,0,1,0-.37c0-.05.12-.09.14-.16s-.05-.14-.12-.19-.14-.07-.17-.14a.21.21,0,0,1,.08-.25.34.34,0,0,1,.28,0,.76.76,0,0,1,.37.32A2.5,2.5,0,0,1,34,15a.34.34,0,0,0,.09.14.2.2,0,0,0,.27-.05.33.33,0,0,0,.06-.29,1,1,0,0,0-.21-.35.59.59,0,0,1-.13-.23.68.68,0,0,1,.09-.44,1.69,1.69,0,0,1,.26-.41c.08-.08.18-.14.26-.21a.42.42,0,0,0,.17-.28A5.39,5.39,0,0,0,35,11.46a2,2,0,0,0-.27-.61.79.79,0,0,0-.35-.33l-.08,0a.39.39,0,0,1-.22-.28.38.38,0,0,1,.14-.33.45.45,0,0,0,.11-.4.55.55,0,0,1,0-.25.26.26,0,0,1,.12-.15.7.7,0,0,1,.2-.08c.27-.08.57,0,.85-.1a.51.51,0,0,0,.29-.15.22.22,0,0,0,0-.29l0-.41a.54.54,0,0,1,0-.18.24.24,0,0,1,.11-.13c.14,0,.27.14.4.09s.1,0,.11-.09,0-.12.08-.14a.09.09,0,0,1,.13.07.33.33,0,0,1,0,.17l-.09.37-.24,1.06a.77.77,0,0,0,.12.57,8.78,8.78,0,0,1,.55,1,.22.22,0,0,0,.09.1c.08,0,.17-.07.17-.16a1.38,1.38,0,0,0-.06-.26c0-.21.12-.4.18-.61a1.08,1.08,0,0,0-.18-.9c-.1-.17-.27-.29-.29-.48a.45.45,0,0,1,.25-.48A.86.86,0,0,1,37.3,8a.52.52,0,0,0,.22-.07.2.2,0,0,0,.07-.21.43.43,0,0,1,.09-.39A.74.74,0,0,0,37.86,7c0-.07,0-.15,0-.21L38,6.68a.15.15,0,0,0,0-.24.4.4,0,0,1-.24-.25.74.74,0,0,1,0-.33,1,1,0,0,1,.09-.31A.28.28,0,0,1,38,5.42a.58.58,0,0,1,.29.12s.07.1.11.15a.27.27,0,0,0,.15.11.12.12,0,0,0,.16-.08A.17.17,0,0,0,38.71,5.59ZM22.25,14.18a.27.27,0,0,1-.29.15,2.05,2.05,0,0,1-.34-.07.86.86,0,0,0-.74.18c-.09.08-.23.21-.34.11a.29.29,0,0,1-.05-.31,1.65,1.65,0,0,1,.43-.69l.15-.14.1-.07c.11-.05.25,0,.36.1l.48.34a.77.77,0,0,1,.19.17A.24.24,0,0,1,22.25,14.18Zm1.66.84a.32.32,0,0,1-.43-.15,1.17,1.17,0,0,1-.11-.49c-.06-.34-.44-.7-.28-1.05a.34.34,0,0,1,.36-.18.29.29,0,0,1,.22.32c0,.11-.12.19-.15.3a.47.47,0,0,0,.14.44,2.17,2.17,0,0,1,.31.37A.33.33,0,0,1,23.91,15Zm.94-1.24a.29.29,0,0,1-.21.16.21.21,0,0,1-.2-.24l0-.09.05-.1,0-.07a.2.2,0,0,1,.11-.14C25,13.18,24.92,13.65,24.85,13.78Z"/><path class="cls-1" d="M16.18,11.55a.47.47,0,0,1,.14.37c0,.19-.59.62-.15.66s.82-.2.67-.58c-.07-.19-.27-.3-.35-.49s0-.25-.06-.37-.12-.26-.25-.25-.22.17-.19.3A.84.84,0,0,0,16.18,11.55Z"/><path class="cls-1" d="M15.47,12.25a.56.56,0,0,0,0,.12.12.12,0,0,0,.1.07c.07,0,.13,0,.18-.11a.92.92,0,0,0,.17-.25c.08-.21-.06-.43-.3-.32a.43.43,0,0,0-.17.21A.67.67,0,0,0,15.47,12.25Z"/><path class="cls-1" d="M22.7,7.43a.15.15,0,0,0,.17,0c.09-.09,0-.22-.08-.3a2,2,0,0,1-.07-.23c0-.17-.22-.43-.41-.26a.21.21,0,0,0-.07.17.3.3,0,0,0,0,.18A.86.86,0,0,0,22.7,7.43Z"/><path class="cls-1" d="M22.76,6.13a1,1,0,0,1,.41-.53.85.85,0,0,0,.38-.52c0-.1-.05-.22-.15-.21a.17.17,0,0,0-.13.08l-.74.76c-.12.12-.25.27-.21.43S22.68,6.34,22.76,6.13Z"/><path class="cls-1" d="M23.69,23.12a.31.31,0,0,0-.16.19.51.51,0,0,1-.12.23c-.09.1-.26.09-.36.19S23,24,23,24.09a.49.49,0,0,1-.15.26.33.33,0,0,0,0,.51.38.38,0,0,0,.47,0,.63.63,0,0,0,.24-.48,1.69,1.69,0,0,1,.12-.55c.05-.09.13-.17.19-.26a.44.44,0,0,0,.09-.31A.2.2,0,0,0,23.69,23.12Z"/></g></g></svg>